<?xml version="1.0" encoding="UTF-8" standalone="no"?>
<!-- Created with Inkscape (http://www.inkscape.org/) -->

<svg
   width="210mm"
   height="297mm"
   viewBox="0 0 210 297"
   version="1.1"
   id="svg5"
   xml:space="preserve"
   inkscape:version="1.2 (1:1.2.1+202207142221+cd75a1ee6d)"
   sodipodi:docname="calabaza.svg"
   xmlns:inkscape="http://www.inkscape.org/namespaces/inkscape"
   xmlns:sodipodi="http://sodipodi.sourceforge.net/DTD/sodipodi-0.dtd"
   xmlns="http://www.w3.org/2000/svg"
   xmlns:svg="http://www.w3.org/2000/svg"><sodipodi:namedview
     id="namedview7"
     pagecolor="#ffffff"
     bordercolor="#666666"
     borderopacity="1.0"
     inkscape:showpageshadow="2"
     inkscape:pageopacity="0.0"
     inkscape:pagecheckerboard="0"
     inkscape:deskcolor="#d1d1d1"
     inkscape:document-units="mm"
     showgrid="false"
     inkscape:zoom="0.75722503"
     inkscape:cx="397.50403"
     inkscape:cy="561.92015"
     inkscape:window-width="1848"
     inkscape:window-height="1016"
     inkscape:window-x="72"
     inkscape:window-y="27"
     inkscape:window-maximized="1"
     inkscape:current-layer="layer2"><inkscape:grid
       type="xygrid"
       id="grid1583" /></sodipodi:namedview><defs
     id="defs2" /><g
     inkscape:label="Capa 1"
     inkscape:groupmode="layer"
     id="layer1" /><g
     inkscape:groupmode="layer"
     id="layer2"
     inkscape:label="Capa 2"><path
       style="fill:#ff7f2a;stroke:#000000;stroke-width:0.264583px;stroke-linecap:butt;stroke-linejoin:miter;stroke-opacity:1"
       d="m 92.382809,174.85439 c 0,0 -7.374308,10.46806 -36.066317,-5.27779 -28.692006,-15.74586 7.440719,-64.48102 19.88284,-64.85807 12.442121,-0.37705 11.673517,17.3522 11.673517,17.3522 0,0 1.237699,-14.103 11.322124,-15.45974 10.084427,-1.35673 25.864277,9.3912 28.567447,11.79024 2.70316,2.39904 -8.20746,-10.2105 10.16718,-7.61482 18.0163,2.54506 31.13976,23.48455 29.05089,45.56585 -2.2905,24.21274 -32.90017,21.95539 -42.12346,21.66062 -11.09866,-0.35472 -7.56016,-0.0164 -32.474221,-3.15849 z"
       id="path3091"
       sodipodi:nodetypes="csscsssssc" /><path
       style="fill:#000000;stroke:#000000;stroke-width:0.264583px;stroke-linecap:butt;stroke-linejoin:miter;stroke-opacity:1"
       d="m 66.798044,145.93467 c 0,0 3.649054,-11.81826 9.344054,-12.72513 5.695002,-0.90686 12.642376,3.78559 13.869455,9.53802 1.227079,5.75244 0.907587,7.86279 -3.828174,5.75244 -4.735761,-2.11036 -5.148493,-6.29722 -8.900298,-4.38703 -3.751802,1.91018 -11.720393,6.89907 -10.485037,1.8217 z"
       id="path3193" /><path
       style="fill:#000000;stroke:#000000;stroke-width:0.264583px;stroke-linecap:butt;stroke-linejoin:miter;stroke-opacity:1"
       d="m 122.0877,145.39767 c 0,0 0.24664,-12.43338 6.67627,-12.43338 6.42963,0 14.17156,0.93294 14.44966,8.23432 0.2781,7.30139 2.6403,9.16726 -2.11993,8.23432 -4.76022,-0.93293 -7.02948,-1.86587 -10.50395,-0.93293 -3.47448,0.93293 -8.50205,4.13506 -8.50205,-3.10233 z"
       id="path3195" /><path
       style="fill:#000000;stroke:#000000;stroke-width:0.264583px;stroke-linecap:butt;stroke-linejoin:miter;stroke-opacity:1"
       d="m 105,150.14511 c 11.491,0.71216 10.21836,-2.03922 12.26289,4.61246 2.04454,6.65168 -6.14487,8.10736 -6.14487,8.10736 0,0 0,-3.47576 -5.37442,-3.84688 -5.37441,-0.37112 -0.7436,2.77412 -0.7436,2.77412 0,0 -7.80629,-1.38564 -11.129798,-2.96879 -3.323505,-1.58314 -0.180954,-9.39045 -0.180954,-9.39045 z"
       id="path3199" /><path
       style="fill:#000000;stroke:#000000;stroke-width:0.264583px;stroke-linecap:butt;stroke-linejoin:miter;stroke-opacity:1"
       d="m 99.977266,144.13916 c 0,0 1.354374,-5.60502 3.752644,-6.88007 2.39826,-1.27504 9.00245,2.44556 9.00245,5.84431 0,3.39875 -3.5479,-3.38926 -6.60419,-0.46858 -3.05629,2.92067 -6.150904,5.0146 -6.150904,1.50434 z"
       id="path3207" /><path
       style="fill:none;stroke:#000000;stroke-width:0.264583px;stroke-linecap:butt;stroke-linejoin:miter;stroke-opacity:1"
       d="m 99.194971,106.61099 c 0,0 -2.022502,-21.928616 3.686169,-21.402717 5.70867,0.525896 10.18058,-3.577466 8.1916,9.622909 -1.98899,13.200378 -1.87696,13.238408 -1.87696,13.238408 z"
       id="path3216" /></g></svg>
