<?xml version="1.0" encoding="UTF-8" standalone="no"?>
<!-- Created with Inkscape (http://www.inkscape.org/) -->

<svg
   width="210mm"
   height="297mm"
   viewBox="0 0 210 297"
   version="1.1"
   id="svg5"
   inkscape:version="1.2 (1:1.2.1+202207142221+cd75a1ee6d)"
   sodipodi:docname="robot.svg"
   xmlns:inkscape="http://www.inkscape.org/namespaces/inkscape"
   xmlns:sodipodi="http://sodipodi.sourceforge.net/DTD/sodipodi-0.dtd"
   xmlns="http://www.w3.org/2000/svg"
   xmlns:svg="http://www.w3.org/2000/svg">
  <sodipodi:namedview
     id="namedview7"
     pagecolor="#ffffff"
     bordercolor="#666666"
     borderopacity="1.0"
     inkscape:showpageshadow="2"
     inkscape:pageopacity="0.0"
     inkscape:pagecheckerboard="0"
     inkscape:deskcolor="#d1d1d1"
     inkscape:document-units="mm"
     showgrid="false"
     showguides="true"
     inkscape:zoom="1.0074671"
     inkscape:cx="379.16873"
     inkscape:cy="395.54643"
     inkscape:window-width="1848"
     inkscape:window-height="1016"
     inkscape:window-x="72"
     inkscape:window-y="27"
     inkscape:window-maximized="1"
     inkscape:current-layer="layer1" />
  <defs
     id="defs2" />
  <g
     inkscape:label="Capa 1"
     inkscape:groupmode="layer"
     id="layer1">
    <path
       id="rect1735"
       style="fill:#ffff00;stroke:#000000;stroke-width:0.765;stroke-dasharray:none;stroke-opacity:1"
       d="m 58.341645,25.491979 a 10.265143,10.188131 59.734765 0 0 -3.625534,14.001147 10.265143,10.188131 59.734765 0 0 9.776357,5.065952 L 93.584073,94.41281 101.56312,89.756728 72.304557,39.616894 a 10.265143,10.188131 59.734765 0 0 0.01036,-10.393358 10.265143,10.188131 59.734765 0 0 -13.973268,-3.731557 z" />
    <path
       id="rect1735-0"
       style="fill:#ffff00;stroke:#000000;stroke-width:0.765;stroke-dasharray:none;stroke-opacity:1"
       d="m 157.49217,24.875976 a 10.188131,10.265143 30.265235 0 1 3.62554,14.001147 10.188131,10.265143 30.265235 0 1 -9.77636,5.065952 l -29.09161,49.853732 -7.97905,-4.656082 29.25857,-50.139834 a 10.188131,10.265143 30.265235 0 1 -0.0104,-10.393358 10.188131,10.265143 30.265235 0 1 13.97327,-3.731557 z" />
    <path
       style="fill:#80ffb3;stroke:#000000;stroke-width:0.765;stroke-linecap:butt;stroke-linejoin:miter;stroke-opacity:1;fill-opacity:1;stroke-dasharray:none"
       d="m 54.080129,80.684933 103.683161,0.122795 0.0801,15.387093 20.47975,-0.03506 -0.18359,26.865123 -20.90341,-0.0248 -0.0587,49.53547 -103.651995,-0.12277 0.05952,-50.25449 -23.952819,-0.0284 0.03089,-26.082485 24.263403,0.02874 0.01823,-15.39146 z"
       id="path129"
       sodipodi:nodetypes="cccccccccccccc" />
    <ellipse
       style="fill:#ffffff;stroke:#000000;stroke-width:0.765;stroke-dasharray:none;stroke-opacity:1"
       id="path1219"
       cx="78.316551"
       cy="107.89774"
       rx="14.344421"
       ry="13.62559" />
    <ellipse
       style="fill:#ffffff;stroke:#000000;stroke-width:0.765;stroke-dasharray:none;stroke-opacity:1"
       id="path1219-3"
       cx="133.59509"
       cy="108.28344"
       rx="14.344421"
       ry="13.62559" />
    <rect
       style="fill:#ffaaaa;stroke:#000000;stroke-width:0.765;stroke-dasharray:none;stroke-opacity:1"
       id="rect1421"
       width="77.675804"
       height="13.84831"
       x="68.809624"
       y="144.38026" />
    <ellipse
       style="fill:#000000;stroke:#000000;stroke-width:0.765;stroke-dasharray:none;stroke-opacity:1"
       id="path1475"
       cx="128.79369"
       cy="111.2803"
       rx="8.452282"
       ry="7.9565353" />
    <ellipse
       style="fill:#000000;stroke:#000000;stroke-width:0.765;stroke-dasharray:none;stroke-opacity:1"
       id="path1475-6"
       cx="73.949699"
       cy="111.54052"
       rx="8.452282"
       ry="7.9565353" />
    <path
       style="fill:none;stroke:#000000;stroke-width:0.486;stroke-linecap:butt;stroke-linejoin:miter;stroke-opacity:1;stroke-dasharray:none"
       d="m 76.902502,144.69822 -0.11499,13.52845"
       id="path1508" />
    <path
       style="fill:none;stroke:#000000;stroke-width:0.486;stroke-linecap:butt;stroke-linejoin:miter;stroke-opacity:1;stroke-dasharray:none"
       d="m 84.207831,144.63233 -0.11499,13.52845"
       id="path1508-7" />
    <path
       style="fill:none;stroke:#000000;stroke-width:0.486;stroke-linecap:butt;stroke-linejoin:miter;stroke-opacity:1;stroke-dasharray:none"
       d="m 90.964874,144.69458 -0.11499,13.52845"
       id="path1508-7-5" />
    <path
       style="fill:none;stroke:#000000;stroke-width:0.486;stroke-linecap:butt;stroke-linejoin:miter;stroke-opacity:1;stroke-dasharray:none"
       d="m 98.674884,144.31221 -0.11499,13.52845"
       id="path1508-7-5-3" />
    <path
       style="fill:none;stroke:#000000;stroke-width:0.486;stroke-linecap:butt;stroke-linejoin:miter;stroke-opacity:1;stroke-dasharray:none"
       d="m 105.49813,144.95331 -0.11499,13.52845"
       id="path1508-7-5-3-5" />
    <path
       style="fill:none;stroke:#000000;stroke-width:0.486;stroke-linecap:butt;stroke-linejoin:miter;stroke-opacity:1;stroke-dasharray:none"
       d="m 112.86127,144.37832 -0.11499,13.52845"
       id="path1508-7-5-3-6" />
    <path
       style="fill:none;stroke:#000000;stroke-width:0.486;stroke-linecap:butt;stroke-linejoin:miter;stroke-opacity:1;stroke-dasharray:none"
       d="M 120.71049,144.00805 120.5955,157.5365"
       id="path1508-7-5-3-2" />
    <path
       style="fill:none;stroke:#000000;stroke-width:0.486;stroke-linecap:butt;stroke-linejoin:miter;stroke-opacity:1;stroke-dasharray:none"
       d="m 128.00252,144.77589 -0.11499,13.52845"
       id="path1508-7-5-3-9" />
    <path
       style="fill:none;stroke:#000000;stroke-width:0.486;stroke-linecap:butt;stroke-linejoin:miter;stroke-opacity:1;stroke-dasharray:none"
       d="m 134.54575,144.4157 -0.11499,13.52845"
       id="path1508-7-5-3-1" />
    <path
       style="fill:none;stroke:#000000;stroke-width:0.486;stroke-linecap:butt;stroke-linejoin:miter;stroke-opacity:1;stroke-dasharray:none"
       d="m 140.57198,144.95633 -0.11499,13.52845"
       id="path1508-7-5-3-27" />
  </g>
</svg>
